<?xml version="1.0" encoding="UTF-8" standalone="no"?>
<!-- Created with Inkscape (http://www.inkscape.org/) -->

<svg
   width="200"
   height="200"
   viewBox="0 0 52.916665 52.916668"
   version="1.1"
   id="svg5"
   inkscape:version="1.1 (c68e22c387, 2021-05-23)"
   sodipodi:docname="git.svg"
   xmlns:inkscape="http://www.inkscape.org/namespaces/inkscape"
   xmlns:sodipodi="http://sodipodi.sourceforge.net/DTD/sodipodi-0.dtd"
   xmlns="http://www.w3.org/2000/svg"
   xmlns:svg="http://www.w3.org/2000/svg">
  <sodipodi:namedview
     id="namedview7"
     pagecolor="#ffffff"
     bordercolor="#666666"
     borderopacity="1.0"
     inkscape:pageshadow="2"
     inkscape:pageopacity="0.0"
     inkscape:pagecheckerboard="0"
     inkscape:document-units="mm"
     showgrid="false"
     units="px"
     inkscape:zoom="1.4823794"
     inkscape:cx="13.154527"
     inkscape:cy="58.352134"
     inkscape:window-width="1920"
     inkscape:window-height="1017"
     inkscape:window-x="-8"
     inkscape:window-y="-8"
     inkscape:window-maximized="1"
     inkscape:current-layer="layer3" />
  <defs
     id="defs2" />
  <g
     inkscape:label="Capa 1"
     inkscape:groupmode="layer"
     id="layer1"
     style="display:none" />
  <g
     inkscape:groupmode="layer"
     id="layer3"
     inkscape:label="Dibujo"
     style="display:inline">
    <path
       id="path9263"
       style="fill:#ff441a;fill-opacity:1;stroke:none;stroke-width:2.14973px;stroke-linecap:butt;stroke-linejoin:miter;stroke-opacity:1"
       d="M 51.279754,24.158404 28.752397,1.6336685 c -1.298456,-1.29628004 -3.400923,-1.29628004 -4.703679,0 l -4.667133,4.675634 5.933343,5.9332195 c 1.386596,-0.462189 2.964522,-0.15048 4.0609,0.948025 1.109277,1.107105 1.414544,2.704344 0.941596,4.084463 l 5.714068,5.718248 c 1.386596,-0.479387 2.98172,-0.167678 4.084547,0.935127 1.54998,1.547796 1.54998,4.050067 0,5.597863 -1.545678,1.545647 -4.043702,1.545647 -5.58938,0 -1.158723,-1.162997 -1.448941,-2.874172 -0.868505,-4.290835 l -5.350757,-5.3227 v 14.026905 c 0.378358,0.184875 0.735218,0.436392 1.049084,0.748101 1.53278,1.549946 1.53278,4.047918 0,5.589265 -1.54568,1.549946 -4.060901,1.549946 -5.608729,0 -1.54568,-1.545647 -1.54568,-4.039319 0,-5.584965 0.391256,-0.38695 0.831957,-0.679311 1.300606,-0.872786 V 19.654747 C 24.581859,19.459123 24.136859,19.17751 23.7585,18.79271 22.586879,17.621114 22.305262,15.90779 22.907194,14.473928 L 17.07704,8.6159495 1.6288518,24.053068 c -1.28985797,1.300579 -1.28985797,3.405152 0,4.705731 L 24.158356,51.281386 c 1.298456,1.298429 3.400923,1.298429 4.69938,0 l 22.422018,-22.42155 c 1.300606,-1.29628 1.300606,-3.400853 0,-4.701432" />
  </g>
</svg>
